# File created by Blade
# Date/Time:  Mon Sep 22 16:45:27 2014
# Frame Rate: 120.000 fps
#------------------------------------------------------
:FULLY-SPECIFIED
:DEGREES
1080
root 4.015043 37.220111 1.471569 -27.334728 1.550523 11.557479
RightUpLeg 26.546278 -5.317269 -8.344610
RightLeg 15.984471 -0.000000 -0.000000
RightFoot -22.833162 -15.125468 9.995167
RightToeBase 6.651377 -0.000000 -0.000000
LeftUpLeg -65.144167 2.316642 -11.116795
LeftLeg 102.087113 -0.000000 -0.000000
LeftFoot 6.480251 16.354847 -30.342627
LeftToeBase 2.815942 -0.000000 -0.000000
Spine 32.305609 8.423127 -1.140764
RightShoulder 5.913746 -12.011057 -18.905686
RightArm 30.194570 19.487323 50.168478
RightForeArm 32.457513 -0.000000 82.100257
RightHand 6.315806 -0.000000 -28.953156
RightHandThumb1 -24.326973 -0.000000 -32.862282
LeftShoulder -30.668745 35.431713 -11.827392
LeftArm 29.953853 2.489472 -76.848508
LeftForeArm 30.796557 0.000000 22.454086
LeftHand -13.757185 -0.000000 -15.715165
LeftHandThumb1 -26.253704 0.000000 33.147579
Head 7.787186 -0.008275 -6.301218
1081
root 4.008948 37.216483 1.479016 -27.348107 1.546463 11.526280
RightUpLeg 26.588636 -5.248370 -8.244904
RightLeg 15.942630 -0.000000 -0.000000
RightFoot -22.876943 -15.216464 10.038615
RightToeBase 6.686359 -0.000000 -0.000000
LeftUpLeg -65.088887 2.256641 -11.040691
LeftLeg 102.061516 -0.000000 -0.000000
LeftFoot 6.486938 16.380667 -30.242783
LeftToeBase 3.111669 -0.000000 -0.000000
Spine 32.267529 8.388206 -1.141090
RightShoulder 5.943886 -12.030336 -18.919263
RightArm 30.182531 19.402064 50.048545
RightForeArm 32.247958 -0.000000 82.041491
RightHand 6.271345 0.000000 -28.992054
RightHandThumb1 -24.326973 -0.000000 -32.862282
LeftShoulder -30.611687 35.417312 -11.783260
LeftArm 30.078990 2.458089 -76.735105
LeftForeArm 30.730606 -0.000000 22.462016
LeftHand -13.805217 -0.000000 -15.794683
LeftHandThumb1 -26.253704 0.000000 33.147579
Head 7.744069 0.033142 -6.309156
1082
root 4.005052 37.213794 1.486347 -27.365631 1.542409 11.501381
RightUpLeg 26.627381 -5.202887 -8.177422
RightLeg 15.918265 -0.000000 -0.000000
RightFoot -22.896791 -15.276919 10.044950
RightToeBase 6.692968 -0.000000 -0.000000
LeftUpLeg -65.034767 2.207966 -11.000866
LeftLeg 102.012975 -0.000000 -0.000000
LeftFoot 6.485107 16.511168 -30.203602
LeftToeBase 3.201183 -0.000000 -0.000000
Spine 32.241436 8.357027 -1.137685
RightShoulder 5.959864 -12.048208 -18.929201
RightArm 30.162148 19.304146 49.898477
RightForeArm 32.004728 -0.000000 82.007834
RightHand 6.177963 -0.000000 -29.083938
RightHandThumb1 -24.326973 -0.000000 -32.862282
LeftShoulder -30.535337 35.382944 -11.732458
LeftArm 30.145737 2.386682 -76.643533
LeftForeArm 30.749679 0.000000 22.509974
LeftHand -13.753485 -0.000000 -15.731804
LeftHandThumb1 -26.253704 0.000000 33.147579
Head 7.692897 0.064677 -6.338871
1083
root 4.000369 37.211239 1.496054 -27.382818 1.525364 11.479643
RightUpLeg 26.665603 -5.180530 -8.130415
RightLeg 15.895529 -0.000000 -0.000000
RightFoot -22.875938 -15.328746 9.979157
RightToeBase 6.631676 -0.000000 -0.000000
LeftUpLeg -64.968314 2.074159 -10.888380
LeftLeg 101.983450 -0.000000 -0.000000
LeftFoot 6.492351 16.457236 -30.280286
LeftToeBase 2.953503 -0.000000 -0.000000
Spine 32.206328 8.343479 -1.136430
RightShoulder 5.977071 -12.074720 -18.932800
RightArm 30.129839 19.202060 49.753033
RightForeArm 31.795089 -0.000000 81.990153
RightHand 6.135131 -0.000000 -29.202243
RightHandThumb1 -24.326973 -0.000000 -32.862282
LeftShoulder -30.467988 35.365263 -11.688448
LeftArm 30.193161 2.267297 -76.566054
LeftForeArm 30.817790 -0.000000 22.626823
LeftHand -13.799226 -0.000000 -15.658664
LeftHandThumb1 -26.253704 0.000000 33.147579
Head 7.661311 0.071675 -6.361517
